<?xml version="1.0" standalone="no"?>
<!DOCTYPE svg PUBLIC "-//W3C//DTD SVG 20010904//EN"
 "http://www.w3.org/TR/2001/REC-SVG-20010904/DTD/svg10.dtd">
<svg version="1.0" xmlns="http://www.w3.org/2000/svg"
 width="3000.000000pt" height="3000.000000pt" viewBox="0 0 3000.000000 3000.000000"
 preserveAspectRatio="xMidYMid meet">

<g transform="translate(0.000000,3000.000000) scale(0.100000,-0.100000)"
fill="#000000" stroke="none">
<path d="M15860 15230 l0 -4220 565 0 565 0 0 251 0 251 83 -75 c362 -326 763
-510 1222 -558 134 -14 418 -6 564 16 469 72 854 269 1196 610 291 290 484
607 613 1006 197 607 186 1372 -28 1959 -214 588 -677 1106 -1208 1352 -184
85 -436 154 -657 178 -118 13 -389 13 -495 -1 -225 -27 -433 -90 -635 -190
-196 -98 -368 -221 -592 -425 l-63 -57 0 2062 0 2061 -565 0 -565 0 0 -4220z
m2665 -251 c353 -54 663 -268 882 -609 252 -392 321 -1041 162 -1532 -71 -219
-188 -407 -358 -579 -265 -266 -539 -378 -921 -379 -672 0 -1178 429 -1326
1125 -51 242 -53 601 -4 845 42 214 146 454 264 611 118 156 308 320 464 398
228 115 556 162 837 120z"/>
<path d="M3490 14870 l0 -3860 585 0 585 0 0 1598 0 1597 118 118 118 118 21
-23 c12 -13 167 -203 345 -424 177 -220 793 -982 1368 -1692 l1045 -1292 778
0 c427 0 777 2 777 5 0 3 -296 362 -659 798 -362 435 -1149 1384 -1750 2107
l-1092 1314 1741 1741 c957 957 1740 1743 1740 1748 0 4 -348 7 -773 7 l-773
0 -499 -511 c-275 -282 -612 -628 -750 -769 -547 -563 -1341 -1377 -1542
-1580 l-212 -215 -1 1538 0 1537 -585 0 -585 0 0 -3860z"/>
<path d="M24580 16770 l0 -890 -240 0 -240 0 0 -525 0 -525 240 0 240 0 0
-1910 0 -1910 565 0 565 0 0 1910 0 1910 440 0 440 0 -2 523 -3 522 -437 3
-438 2 0 890 0 890 -565 0 -565 0 0 -890z"/>
<path d="M11820 16003 c-516 -51 -929 -208 -1313 -496 -148 -111 -369 -325
-484 -467 -316 -392 -487 -817 -534 -1330 -13 -138 -6 -483 11 -615 79 -589
315 -1068 731 -1485 514 -515 1152 -760 1914 -737 105 3 244 13 310 22 575 76
1071 322 1486 735 388 387 616 840 704 1400 22 141 31 542 16 690 -35 330
-106 581 -246 865 -130 266 -270 460 -480 670 -421 420 -938 672 -1524 740
-114 14 -488 19 -591 8z m520 -1028 c484 -70 875 -382 1061 -848 124 -310 154
-763 74 -1137 -58 -273 -177 -505 -356 -694 -267 -282 -600 -415 -1041 -416
-334 0 -581 68 -823 228 -185 122 -367 333 -460 534 -176 382 -214 930 -93
1343 83 282 259 547 478 719 310 244 705 336 1160 271z"/>
<path d="M22000 13445 l0 -2435 565 0 565 0 -2 2433 -3 2432 -562 3 -563 2 0
-2435z"/>
<path d="M15810 9765 l0 -485 40 0 40 0 0 485 0 485 -40 0 -40 0 0 -485z"/>
<path d="M17570 9765 l0 -485 40 0 40 0 0 485 0 485 -40 0 -40 0 0 -485z"/>
<path d="M21290 9765 l0 -485 40 0 40 0 0 485 0 485 -40 0 -40 0 0 -485z"/>
<path d="M22310 9765 l0 -485 40 0 40 0 0 485 0 485 -40 0 -40 0 0 -485z"/>
<path d="M4640 9740 l0 -460 45 0 45 0 0 240 0 240 250 0 250 0 0 -240 0 -240
40 0 40 0 0 460 0 460 -40 0 -40 0 0 -185 0 -185 -250 0 -250 0 0 185 0 185
-45 0 -45 0 0 -460z"/>
<path d="M10670 9740 l0 -460 45 0 45 0 2 229 3 230 205 -227 206 -227 57 -3
c31 -2 57 0 57 4 0 3 -80 90 -177 193 -97 102 -197 207 -222 233 l-44 47 213
218 214 218 -50 3 -49 4 -207 -214 -207 -213 -1 213 0 212 -45 0 -45 0 0 -460z"/>
<path d="M16520 9740 l0 -463 168 5 c153 4 172 6 223 30 33 15 67 40 83 61 51
66 68 167 45 252 -13 48 -81 117 -128 131 l-33 9 38 25 c57 37 84 91 84 170 0
77 -22 130 -71 177 -52 49 -81 56 -251 61 l-158 4 0 -462z m327 367 c53 -28
68 -61 68 -147 0 -130 -38 -161 -202 -168 l-103 -4 0 172 0 172 103 -4 c71 -3
112 -9 134 -21z m-2 -398 c50 -14 73 -34 96 -84 40 -88 11 -208 -61 -250 -28
-16 -57 -21 -152 -24 l-118 -3 0 186 0 186 98 0 c53 0 115 -5 137 -11z"/>
<path d="M19250 10160 l0 -40 125 0 125 0 0 -420 0 -420 40 0 40 0 0 420 0
420 125 0 125 0 0 40 0 40 -290 0 -290 0 0 -40z"/>
<path d="M17247 10092 c-22 -24 -21 -65 1 -85 36 -33 85 -15 97 35 13 53 -61
91 -98 50z"/>
<path d="M18612 10094 c-31 -21 -30 -69 3 -90 51 -33 107 13 86 70 -15 37 -52
46 -89 20z"/>
<path d="M23405 10048 c17 -83 62 -113 165 -113 103 0 148 30 165 113 6 29 4
32 -17 32 -15 0 -29 -10 -40 -30 -22 -39 -60 -53 -126 -48 -53 5 -102 35 -102
65 0 7 -11 13 -26 13 -24 0 -25 -2 -19 -32z"/>
<path d="M7550 9945 l0 -115 -50 0 -50 0 0 -35 0 -35 50 0 50 0 0 -240 0 -240
35 0 35 0 0 240 0 240 55 0 55 0 0 35 0 35 -55 0 -55 0 0 115 0 115 -35 0 -35
0 0 -115z"/>
<path d="M7900 9945 l0 -115 -50 0 -50 0 0 -35 0 -35 50 0 50 0 0 -240 0 -240
35 0 35 0 0 240 0 240 55 0 55 0 0 35 0 35 -55 0 -55 0 0 115 0 115 -35 0 -35
0 0 -115z"/>
<path d="M5677 9836 c-86 -31 -136 -91 -163 -196 -42 -164 33 -324 170 -365
97 -29 170 -13 233 50 l43 42 0 -43 0 -44 40 0 40 0 0 275 0 275 -40 0 -40 0
0 -44 0 -43 -43 42 c-62 62 -153 82 -240 51z m170 -67 c74 -28 112 -99 113
-210 0 -103 -34 -173 -100 -206 -110 -56 -230 -5 -261 110 -18 68 -7 177 24
230 43 73 143 107 224 76z"/>
<path d="M6437 9840 c-130 -33 -206 -129 -215 -270 -6 -104 21 -172 90 -235
85 -77 210 -95 341 -50 45 16 47 18 47 56 0 21 -1 39 -2 39 -2 0 -30 -11 -63
-25 -106 -43 -210 -28 -279 41 -41 41 -56 84 -56 156 1 194 165 279 373 193
14 -6 17 -1 17 32 0 37 -3 40 -37 52 -52 16 -170 22 -216 11z"/>
<path d="M7020 9841 c-81 -25 -148 -90 -175 -171 -22 -67 -17 -208 9 -260 25
-48 74 -98 121 -123 32 -17 58 -21 125 -21 85 0 129 14 180 56 21 18 74 88 69
92 -2 2 -18 11 -36 20 -32 16 -32 16 -50 -14 -28 -48 -86 -83 -148 -88 -106
-9 -186 60 -201 171 l-7 47 223 0 223 0 -7 58 c-8 72 -48 155 -90 187 -63 48
-164 67 -236 46z m168 -88 c30 -23 56 -64 66 -105 l6 -28 -174 0 -175 0 9 29
c16 57 52 100 100 120 40 17 136 8 168 -16z"/>
<path d="M8370 9841 c-81 -25 -149 -92 -176 -174 -21 -64 -16 -206 10 -257 25
-48 73 -98 121 -123 58 -31 193 -31 251 0 37 20 124 106 124 123 0 3 -16 14
-35 23 l-34 16 -18 -30 c-28 -47 -83 -79 -146 -86 -107 -11 -188 57 -203 170
l-7 47 223 0 223 0 -7 58 c-13 111 -73 195 -163 228 -41 14 -123 17 -163 5z
m150 -83 c45 -23 72 -59 84 -110 l6 -28 -175 0 -176 0 7 23 c37 120 146 170
254 115z"/>
<path d="M9080 9837 c-19 -6 -54 -30 -77 -54 l-43 -42 0 44 0 45 -40 0 -40 0
0 -415 0 -415 40 0 40 0 0 185 0 184 43 -42 c126 -126 342 -65 393 112 26 86
16 212 -21 280 -35 63 -76 97 -141 117 -55 16 -105 17 -154 1z m155 -80 c58
-32 95 -109 95 -196 0 -83 -14 -132 -47 -172 -90 -106 -264 -62 -312 80 -25
75 -10 184 32 245 44 63 158 85 232 43z"/>
<path d="M9750 9841 c-81 -25 -149 -92 -176 -174 -21 -64 -16 -206 10 -257 25
-48 74 -98 121 -123 58 -31 193 -30 251 0 37 20 124 105 124 123 0 3 -15 14
-34 23 l-34 16 -25 -38 c-72 -108 -248 -106 -312 3 -14 24 -28 64 -31 89 l-7
47 223 0 223 0 -7 58 c-8 72 -48 155 -90 187 -63 48 -164 67 -236 46z m168
-88 c30 -23 57 -65 67 -105 l7 -28 -177 0 -176 0 7 23 c18 60 57 106 104 126
40 17 136 8 168 -16z"/>
<path d="M11585 9841 c-83 -22 -158 -80 -198 -156 -18 -32 -22 -57 -22 -130 0
-103 16 -144 82 -206 65 -63 117 -83 208 -83 72 0 86 3 143 33 106 57 155 139
156 256 0 116 -60 212 -166 264 -49 23 -154 35 -203 22z m153 -77 c151 -63
183 -272 58 -381 -47 -42 -97 -57 -164 -50 -150 16 -235 180 -168 323 48 104
169 152 274 108z"/>
<path d="M12326 9835 c-21 -7 -54 -28 -72 -46 l-34 -33 0 37 c0 36 -1 37 -40
37 l-40 0 0 -275 0 -275 39 0 39 0 4 193 c3 170 5 196 23 226 31 53 67 74 132
78 68 4 98 -9 130 -56 22 -33 23 -42 23 -237 l0 -204 40 0 40 0 0 203 c0 116
-5 219 -11 242 -28 100 -156 152 -273 110z"/>
<path d="M13704 9831 c-22 -10 -53 -34 -67 -52 l-27 -34 0 43 0 42 -40 0 -40
0 0 -275 0 -275 39 0 39 0 4 193 c3 171 5 196 24 232 28 54 73 77 142 72 104
-8 122 -54 122 -322 l0 -175 34 0 34 0 4 188 c3 170 5 191 26 234 29 59 74 82
144 76 28 -3 57 -13 69 -24 43 -38 49 -72 49 -279 l0 -195 40 0 40 0 0 196 c0
113 -5 214 -11 240 -36 142 -223 180 -335 69 l-41 -41 -22 34 c-43 65 -146 90
-227 53z"/>
<path d="M14636 9840 c-59 -18 -106 -83 -106 -147 0 -73 53 -124 174 -169 27
-10 64 -33 83 -51 31 -28 35 -37 29 -65 -10 -48 -37 -70 -94 -76 -57 -5 -101
13 -133 57 l-21 29 -34 -20 -34 -20 18 -30 c9 -16 37 -42 62 -56 38 -23 57
-27 120 -27 87 0 130 20 168 76 20 29 23 44 20 96 -5 83 -32 112 -145 154
-111 42 -133 60 -133 108 0 55 27 76 97 76 51 0 58 -3 87 -37 l32 -37 32 20
c26 15 31 23 23 37 -39 72 -151 110 -245 82z"/>
<path d="M15207 9836 c-86 -31 -136 -91 -163 -196 -41 -160 35 -325 167 -364
100 -30 173 -15 236 49 l43 42 0 -43 0 -44 40 0 40 0 0 275 0 275 -40 0 -40 0
0 -44 0 -43 -43 42 c-62 62 -153 82 -240 51z m176 -70 c41 -17 81 -64 97 -112
8 -22 11 -68 8 -114 -8 -135 -74 -209 -186 -210 -82 0 -146 47 -172 126 -20
61 -8 183 23 236 45 77 147 109 230 74z"/>
<path d="M18009 9834 c-62 -19 -122 -80 -150 -152 -17 -47 -20 -73 -17 -147 8
-165 84 -258 222 -272 76 -8 133 12 183 62 l43 42 0 -91 c0 -111 -17 -150 -80
-183 -96 -51 -250 -7 -250 72 0 11 -12 15 -50 15 -50 0 -50 0 -44 -27 20 -89
96 -142 215 -151 125 -9 222 38 263 128 19 42 21 66 24 373 l4 327 -41 0 -41
0 0 -44 0 -43 -43 42 c-63 63 -141 79 -238 49z m206 -88 c20 -16 46 -47 56
-70 25 -56 25 -176 0 -231 -75 -163 -296 -151 -342 18 -17 65 -7 176 22 228
49 90 181 118 264 55z"/>
<path d="M20015 9841 c-83 -22 -158 -80 -198 -156 -31 -58 -31 -202 0 -260 27
-51 86 -107 143 -136 68 -35 186 -33 257 4 111 57 167 146 167 262 0 117 -61
213 -166 264 -49 23 -154 35 -203 22z m153 -77 c151 -63 183 -272 58 -381 -47
-42 -97 -57 -164 -50 -150 16 -235 180 -168 323 48 104 169 152 274 108z"/>
<path d="M20770 9837 c-19 -6 -54 -30 -77 -54 l-43 -42 0 44 0 45 -40 0 -40 0
0 -415 0 -415 40 0 40 0 0 185 0 184 43 -42 c126 -126 342 -65 393 112 26 86
16 212 -21 280 -35 63 -76 97 -141 117 -55 16 -105 17 -154 1z m155 -80 c58
-32 95 -109 95 -196 0 -83 -14 -132 -47 -172 -90 -106 -264 -62 -312 80 -25
75 -10 184 32 245 44 63 158 85 232 43z"/>
<path d="M23452 9836 c-62 -20 -103 -56 -137 -117 -24 -45 -30 -69 -33 -139
-2 -47 1 -103 7 -125 17 -66 65 -130 118 -162 41 -24 58 -28 123 -28 86 0 123
16 177 73 l35 37 -6 -100 c-8 -118 -23 -150 -86 -183 -36 -19 -57 -23 -107
-20 -72 4 -109 26 -133 76 -14 29 -19 32 -63 32 -47 0 -47 0 -41 -27 19 -85
94 -139 206 -150 129 -12 228 31 270 116 22 45 23 56 26 379 l3 332 -35 0 -36
0 0 -47 0 -47 -32 36 c-18 19 -48 43 -67 53 -45 23 -135 28 -189 11z m165 -67
c41 -15 91 -67 105 -108 16 -49 14 -168 -5 -211 -53 -123 -208 -160 -299 -73
-65 62 -78 226 -25 316 43 73 142 107 224 76z"/>
<path d="M12830 9657 c0 -245 20 -313 106 -363 81 -47 221 -41 285 13 16 14
40 44 52 67 20 38 22 57 25 249 l3 207 -40 0 -40 0 -3 -203 c-3 -224 -7 -238
-71 -278 -25 -16 -45 -19 -90 -16 -122 7 -146 59 -147 320 l0 177 -40 0 -40 0
0 -173z"/>
<path d="M17250 9555 l0 -275 40 0 40 0 0 275 0 275 -40 0 -40 0 0 -275z"/>
<path d="M18610 9555 l0 -275 40 0 40 0 0 275 0 275 -40 0 -40 0 0 -275z"/>
<path d="M21600 9657 c0 -245 20 -313 106 -363 96 -56 243 -39 307 37 49 56
57 102 57 313 l0 186 -39 0 -40 0 -3 -203 c-3 -224 -7 -238 -71 -278 -25 -16
-45 -19 -90 -16 -122 7 -146 59 -147 320 l0 177 -40 0 -40 0 0 -173z"/>
<path d="M22620 9657 c0 -245 20 -313 106 -363 81 -47 221 -41 285 13 16 14
40 44 52 67 20 38 22 57 25 249 l3 207 -40 0 -40 0 -3 -203 c-3 -224 -7 -238
-71 -278 -25 -16 -45 -19 -90 -16 -122 7 -146 59 -147 320 l0 177 -40 0 -40 0
0 -173z"/>
<path d="M24040 9661 c0 -92 5 -192 10 -222 21 -108 89 -167 206 -177 109 -8
183 30 230 118 16 30 19 63 22 243 l3 207 -40 0 -40 0 -3 -203 c-3 -224 -7
-238 -71 -278 -25 -16 -45 -19 -90 -16 -122 7 -146 59 -147 320 l0 177 -40 0
-40 0 0 -169z"/>
</g>
</svg>
